<?xml version="1.0" standalone="yes"?>
<svg xmlns="http://www.w3.org/2000/svg" width="512" height="512">
<path style="fill:#010101; stroke:none;" d="M0 0L0 235L1 235C7.976 223.031 22.7292 218.64 35 214.05C59.0586 205.051 82.9916 195.708 107 186.576C202.724 150.162 298.795 114.348 394 76.6011C422.887 65.1481 453.701 49.7439 484 42.8881C496.225 40.1219 508.721 47.3726 511 60L512 60L512 0L0 0z"/>
<path style="fill:#039be5; stroke:none;" d="M457 54L438 59L438 61L431 64L425 64C417.404 70.014 400.649 75.7672 391 77L391 79L357 90L340.961 96.6366L310 108L310 110C305.103 108.368 282.598 118.008 282 121C276.432 120.632 266.439 123.417 263 128L256 131L216 144L216 146L182 157L165.961 163.637L135 175L135 177L128 180C122.508 179.446 109.807 183.127 107 188L88 193L88 195L81 198L41 211L41 213C27.5387 212.211 -8.9461 229.175 2.27469 246.79C5.59912 252.009 12.062 254.139 17.5756 255.989C31.5697 260.686 52.2508 271.335 67 270L79.0394 275.353L112 284C117.021 290.293 136.407 295.064 141 287L143 286C149.375 285.619 163.598 276.343 167 271L177 267L184 260C188.394 259.425 191.785 257.928 194 254C203.583 253.2 215.268 242.175 223.464 237C245.517 223.075 267.832 209.544 290 195.806C298.515 190.53 315.113 183.676 320 175L322 174C328.475 173.613 342.521 164.464 346 159L356 155L366 148.333L392 131.833L399 128C401.756 125.4 420.112 113.209 420.744 123.094C421.069 128.182 411.864 133.579 408.63 136.664C395.816 148.883 382.056 160.108 368.996 172.075C329.431 208.329 289.24 243.895 249.039 279.424C232.853 293.73 217.887 310.763 200 323L197.332 366.996L192 443C210.633 442.949 222.532 426.671 234.999 414.586C240.277 409.47 247.795 403.604 251 397L271.965 379.597L285 385C287.279 389.256 291.143 392.557 296 393C303.548 406.046 324.972 416.065 337.015 425.022C341.633 428.456 347.298 434.27 353 435C356.366 440.725 367.505 449.026 374 450C381.888 465.879 412.855 477.005 425.776 461.985C438.875 446.757 439.152 416.581 443.181 397.576C444.688 390.468 448.559 382.218 447 375L449 375L456.437 334.83L460 314L466.551 289.94L477.958 234.412L482 211L484 211C483.521 196.301 489.924 178.247 493.546 164C498.389 144.954 501.456 125.266 505.468 106C508.346 92.1754 513.355 77.8974 511.708 63.588C509.122 41.1146 490.577 41.1282 473.412 46.1898C468.603 47.6079 459.566 49.5272 457 54z"/>
<path style="fill:#039ce9; stroke:none;" d="M486 42L487 43L486 42M489 42L489 43L492 43L489 42M493 42L494 43L493 42M481 43L482 44L481 43z"/>
<path style="fill:#0185fb; stroke:none;" d="M477 44L478 45L477 44z"/>
<path style="fill:#039ce9; stroke:none;" d="M478 44L479 45L478 44M480 44L481 45L480 44M475 45L476 46L475 45M501 45L502 46L501 45M473 46L474 47L473 46z"/>
<path style="fill:#01ffff; stroke:none;" d="M503 46L504 47L503 46z"/>
<path style="fill:#039ce9; stroke:none;" d="M504 47L505 48L504 47M505 48L506 49L505 48z"/>
<path style="fill:#0185fb; stroke:none;" d="M464 49L465 50L464 49z"/>
<path style="fill:#039ce9; stroke:none;" d="M506 49L507 50L506 49M460 51L461 52L460 51M455.667 53.3333L456.333 53.6667L455.667 53.3333M451.667 54.3333L452.333 54.6667L451.667 54.3333M450 55L451 56L450 55M509 55L510 56L509 55z"/>
<path style="fill:#0185fb; stroke:none;" d="M510 56L511 57L510 56M443 57L444 58L443 57z"/>
<path style="fill:#039ce9; stroke:none;" d="M444 57L445 58L444 57M510.333 57.6667L510.667 58.3333L510.333 57.6667M439 59L440 60L439 59M437 60L438 61L437 60M511.333 60.6667L511.667 61.3333L511.333 60.6667M433 61L434 62L433 61z"/>
<path style="fill:#0185fb; stroke:none;" d="M430 62L431 63L430 62z"/>
<path style="fill:#039ce9; stroke:none;" d="M428 63L429 64L428 63M430 63L431 64L430 63M426 64L427 65L426 64M511 64L512 65L511 64M423.667 65.3333L424.333 65.6667L423.667 65.3333M417 67L418 68L417 67M415.667 68.3333L416.333 68.6667L415.667 68.3333M412 69L413 70L412 69z"/>
<path style="fill:#01ffff; stroke:none;" d="M409 70L410 71L409 70z"/>
<path style="fill:#039ce9; stroke:none;" d="M410 70L411 71L410 70M404.667 72.3333L405.333 72.6667L404.667 72.3333M402.667 73.3333L403.333 73.6667L402.667 73.3333z"/>
<path style="fill:#0185fb; stroke:none;" d="M396 75L397 76L396 75z"/>
<path style="fill:#039ce9; stroke:none;" d="M511.333 75.6667L511.667 76.3333L511.333 75.6667M392 77L393 78L392 77M390 78L391 79L390 78M511 78L512 79L511 78z"/>
<path style="fill:#010101; stroke:none;" d="M511 79C508.492 110.513 497.788 143.067 491.211 174C477.176 240.004 462.678 305.922 448.997 372C444.298 394.696 439.423 417.368 434.424 440C432.09 450.571 428.585 462.484 417.999 467.597C404.32 474.205 390.586 463.906 380 456.116C353.721 436.779 327.526 417.287 301 398.29C294.836 393.876 280.706 378.854 273 379.306C266.241 379.703 257.632 392.532 253 396.961C243.098 406.429 233.025 415.751 223 425.09C213.179 434.238 206.28 442.961 192 443C192.226 415.746 196.047 388.191 197.91 361C198.593 351.049 196.197 332.911 201.028 324.17C203.925 318.926 210.605 314.787 215 310.831C224.321 302.442 233.586 294.002 243 285.715C273.904 258.509 304.876 231.091 335 203.025C356.949 182.575 379.919 163.221 402 142.914C405.55 139.649 423.8 127.054 420.839 121.514C416.477 113.355 397.249 128.174 393 130.808C365.25 148.005 337.752 165.61 310 182.808C268.552 208.494 227.388 234.644 186 260.424C174.32 267.699 162.641 274.981 151 282.319C146.344 285.253 139.98 291.053 134.424 291.783C128.068 292.619 119.04 287.539 113 285.72C95.3067 280.39 77.5755 275.037 60 269.33C41.997 263.484 13.3287 260.44 1 245L0 245L0 512L512 512L512 206L512 117C512 106.104 515.208 89.0275 511 79z"/>
<path style="fill:#0185fb; stroke:none;" d="M383 80L384 81L383 80z"/>
<path style="fill:#039ce9; stroke:none;" d="M510 80L510 83L511 83L510 80M379 82L380 83L379 82M373 84L374 85L373 84M370 85L371 86L370 85M509 85L510 86L509 85M369 86L370 87L369 86M365 87L366 88L365 87M358 90L359 91L358 90M508.333 90.6667L508.667 91.3333L508.333 90.6667M355.667 91.3333L356.333 91.6667L355.667 91.3333z"/>
<path style="fill:#0185fb; stroke:none;" d="M349 93L350 94L349 93M508 93L509 94L508 93z"/>
<path style="fill:#039ce9; stroke:none;" d="M345 95L346 96L345 95z"/>
<path style="fill:#0185fb; stroke:none;" d="M336 98L337 99L336 98z"/>
<path style="fill:#039ce9; stroke:none;" d="M332 100L333 101L332 100M506 100L507 101L506 100M506 102L507 103L506 102M323 103L324 104L323 103M322 104L323 105L322 104M318 105L319 106L318 105M505 105L505 108L506 108L505 105M311 108L312 109L311 108M309 109L310 110L309 109z"/>
<path style="fill:#0185fb; stroke:none;" d="M302 111L303 112L302 111z"/>
<path style="fill:#039ce9; stroke:none;" d="M300 112L301 113L300 112M298 113L299 114L298 113z"/>
<path style="fill:#0185fb; stroke:none;" d="M289 116L290 117L289 116z"/>
<path style="fill:#039ce9; stroke:none;" d="M503 116L504 117L503 116M287 117L288 118L287 117M284 118L285 119L284 118z"/>
<path style="fill:#01ffff; stroke:none;" d="M281 119L282 120L281 119z"/>
<path style="fill:#039ce9; stroke:none;" d="M283 119L284 120L283 119M413.667 119.333L414.333 119.667L413.667 119.333M418 119L419 120L418 119M280.667 120.333L281.333 120.667L280.667 120.333M410 120L411 121L410 120M276 121L277 122L276 121M408 121L409 122L408 121z"/>
<path style="fill:#0185fb; stroke:none;" d="M502 121L503 122L502 121M268 124L269 125L268 124z"/>
<path style="fill:#039ce9; stroke:none;" d="M403 124L404 125L403 124z"/>
<path style="fill:#01ffff; stroke:none;" d="M420 125L421 126L420 125z"/>
<path style="fill:#039ce9; stroke:none;" d="M399 126L400 127L399 126M262 127L263 128L262 127M397 127L398 128L397 127M419 127L420 128L419 127M500 127L501 128L500 127M396 128L397 129L396 128z"/>
<path style="fill:#01ffff; stroke:none;" d="M417 128L418 129L417 128z"/>
<path style="fill:#0185fb; stroke:none;" d="M255 129L256 130L255 129z"/>
<path style="fill:#039ce9; stroke:none;" d="M395 129L396 130L395 129z"/>
<path style="fill:#0185fb; stroke:none;" d="M416 129L417 130L416 129z"/>
<path style="fill:#039ce9; stroke:none;" d="M500 129L501 130L500 129M253 130L254 131L253 130M255 130L256 131L255 130M415 130L416 131L415 130M251 131L252 132L251 131M414 131L415 132L414 131M390 132L391 133L390 132M413 132L414 133L413 132M499 132L500 133L499 132M388 133L389 134L388 133M242 134L243 135L242 134M387 134L388 135L387 134M240.667 135.333L241.333 135.667L240.667 135.333M237 136L238 137L237 136M382 137L383 138L382 137z"/>
<path style="fill:#01ffff; stroke:none;" d="M407 137L408 138L407 137z"/>
<path style="fill:#039ce9; stroke:none;" d="M408 137L409 138L408 137M406 138L407 139L406 138M229.667 139.333L230.333 139.667L229.667 139.333M379 139L380 140L379 139M498 139L499 140L498 139M227.667 140.333L228.333 140.667L227.667 140.333M377 140L378 141L377 140M404 140L403 142L405 142L404 140z"/>
<path style="fill:#0185fb; stroke:none;" d="M221 142L222 143L221 142z"/>
<path style="fill:#039ce9; stroke:none;" d="M374 142L375 143L374 142M497.333 143.667L497.667 144.333L497.333 143.667M217 144L218 145L217 144M400 144L401 145L400 144M215 145L216 146L215 145M369 145L370 146L369 145z"/>
<path style="fill:#01ffff; stroke:none;" d="M368 146L369 147L368 146M397 146L398 147L397 146z"/>
<path style="fill:#0185fb; stroke:none;" d="M208 147L209 148L208 147z"/>
<path style="fill:#039ce9; stroke:none;" d="M396.667 147.333L397.333 147.667L396.667 147.333M496 147L497 148L496 147M363 148L364 149L363 148M204 149L205 150L204 149M198 151L199 152L198 151z"/>
<path style="fill:#01ffff; stroke:none;" d="M360 151L361 152L360 151z"/>
<path style="fill:#039ce9; stroke:none;" d="M195 152L196 153L195 152M391 152L392 153L391 152M194 153L195 154L194 153M355.667 153.333L356.333 153.667L355.667 153.333M190 154L191 155L190 154M354 154L355 155L354 154z"/>
<path style="fill:#01ffff; stroke:none;" d="M495 154L496 155L495 154z"/>
<path style="fill:#039ce9; stroke:none;" d="M387 155L388 156L387 155M494 155L495 156L494 155z"/>
<path style="fill:#01ffff; stroke:none;" d="M352 156L353 157L352 156z"/>
<path style="fill:#039ce9; stroke:none;" d="M183 157L184 158L183 157M350 157L351 158L350 157M180.667 158.333L181.333 158.667L180.667 158.333M346 159L347 160L346 159M383 159L384 160L383 159z"/>
<path style="fill:#0185fb; stroke:none;" d="M174 160L175 161L174 160z"/>
<path style="fill:#01ffff; stroke:none;" d="M344 161L345 162L344 161z"/>
<path style="fill:#039ce9; stroke:none;" d="M170 162L171 163L170 162M342 162L343 163L342 162M380 162L381 163L380 162M338 164L339 165L338 164M377 164L378 165L377 164z"/>
<path style="fill:#0185fb; stroke:none;" d="M161 165L162 166L161 165z"/>
<path style="fill:#039ce9; stroke:none;" d="M337 165L338 166L337 165z"/>
<path style="fill:#01ffff; stroke:none;" d="M336 166L337 167L336 166z"/>
<path style="fill:#039ce9; stroke:none;" d="M157 167L158 168L157 167M334 167L335 168L334 167M374 167L375 168L374 167M492 167L493 168L492 167M373 168L374 169L373 168z"/>
<path style="fill:#0185fb; stroke:none;" d="M492 168L493 169L492 168z"/>
<path style="fill:#039ce9; stroke:none;" d="M330 169L331 170L330 169M148 170L149 171L148 170M329 170L330 171L329 170M491 170L491 173L492 173L491 170M147 171L148 172L147 171z"/>
<path style="fill:#0185fb; stroke:none;" d="M328 171L329 172L328 171z"/>
<path style="fill:#039ce9; stroke:none;" d="M143 172L144 173L143 172z"/>
<path style="fill:#01ffff; stroke:none;" d="M368 172L369 173L368 172M140 173L141 174L140 173z"/>
<path style="fill:#039ce9; stroke:none;" d="M324 173L325 174L324 173z"/>
<path style="fill:#0185fb; stroke:none;" d="M367 173L368 174L367 173z"/>
<path style="fill:#039ce9; stroke:none;" d="M490 173L491 174L490 173M322 174L323 175L322 174M366 174L367 175L366 174M136 175L137 176L136 175M320 175L321 176L320 175M365 175L366 176L365 175M134 176L135 177L134 176z"/>
<path style="fill:#0185fb; stroke:none;" d="M320 176L321 177L320 176z"/>
<path style="fill:#039ce9; stroke:none;" d="M364 176L365 177L364 176M490.333 176.667L490.667 177.333L490.333 176.667z"/>
<path style="fill:#0185fb; stroke:none;" d="M127 178L128 179L127 178z"/>
<path style="fill:#039ce9; stroke:none;" d="M125 179L126 180L125 179M127 179L128 180L127 179M315 179L316 180L315 179M123 180L124 181L123 180z"/>
<path style="fill:#0185fb; stroke:none;" d="M312 181L313 182L312 181z"/>
<path style="fill:#01ffff; stroke:none;" d="M358 181L359 182L358 181z"/>
<path style="fill:#039ce9; stroke:none;" d="M489 181L490 182L489 181M357 182L358 183L357 182z"/>
<path style="fill:#0185fb; stroke:none;" d="M489 182L490 183L489 182z"/>
<path style="fill:#039ce9; stroke:none;" d="M114 183L115 184L114 183M112 184L113 185L112 184M307 184L308 185L307 184M355 184L354 186L356 186L355 184M110 185L111 186L110 185M305 185L306 186L305 185M488 185L489 186L488 185z"/>
<path style="fill:#0185fb; stroke:none;" d="M304 186L305 187L304 186z"/>
<path style="fill:#039ce9; stroke:none;" d="M106 187L107 188L106 187M101.667 188.333L102.333 188.667L101.667 188.333M300 188L301 189L300 188M351 188L352 189L351 188M100 189L101 190L100 189M297 190L298 191L297 190z"/>
<path style="fill:#01ffff; stroke:none;" d="M348 190L349 191L348 190z"/>
<path style="fill:#0185fb; stroke:none;" d="M93 191L94 192L93 191M296 191L297 192L296 191z"/>
<path style="fill:#039ce9; stroke:none;" d="M346 192L347 193L346 192M89 193L90 194L89 193M486.333 193.667L486.667 194.333L486.333 193.667M87 194L88 195L87 194z"/>
<path style="fill:#0185fb; stroke:none;" d="M80 196L81 197L80 196z"/>
<path style="fill:#039ce9; stroke:none;" d="M288 196L289 197L288 196M342 196L343 197L342 196z"/>
<path style="fill:#0185fb; stroke:none;" d="M486 196L487 197L486 196z"/>
<path style="fill:#039ce9; stroke:none;" d="M78 197L79 198L78 197M80 197L81 198L80 197M76 198L77 199L76 198M338 199L339 200L338 199M70 200L71 201L70 200M281 200L282 201L281 200M67 201L68 202L67 201M280 201L281 202L280 201M65.6667 202.333L66.3333 202.667L65.6667 202.333M278 202L279 203L278 202M62 203L63 204L62 203M334 203L335 204L334 203M273 205L274 206L273 205M484 205L485 206L484 205M54.6667 206.333L55.3333 206.667L54.6667 206.333M272 206L273 207L272 206M331 206L332 207L331 206M52.6667 207.333L53.3333 207.667L52.6667 207.333M270 207L271 208L270 207M328 208L329 209L328 208M483.333 208.667L483.667 209.333L483.333 208.667z"/>
<path style="fill:#0185fb; stroke:none;" d="M46 209L47 210L46 209z"/>
<path style="fill:#039ce9; stroke:none;" d="M267 209L268 210L267 209M42 211L43 212L42 211M264 211L265 212L264 211M482 211L483 212L482 211M40 212L41 213L40 212M324 212L325 213L324 212z"/>
<path style="fill:#0185fb; stroke:none;" d="M33 214L34 215L33 214z"/>
<path style="fill:#039ce9; stroke:none;" d="M259 214L260 215L259 214M482 214L483 215L482 214M29 216L30 217L29 216M256 216L257 217L256 216z"/>
<path style="fill:#01ffff; stroke:none;" d="M319 216L320 217L319 216z"/>
<path style="fill:#0185fb; stroke:none;" d="M318 217L319 218L318 217z"/>
<path style="fill:#039ce9; stroke:none;" d="M23.6667 218.333L24.3333 218.667L23.6667 218.333M481 218L482 219L481 218M251 219L252 220L251 219M316 219L317 220L316 219M19 220L20 221L19 220M315 220L316 221L315 220M248 221L249 222L248 221M14 222L15 223L14 222M246 222L247 223L246 222z"/>
<path style="fill:#01ffff; stroke:none;" d="M12 223L13 224L12 223z"/>
<path style="fill:#039ce9; stroke:none;" d="M312 223L313 224L312 223M243 224L244 225L243 224M480 224L481 225L480 224z"/>
<path style="fill:#01ffff; stroke:none;" d="M309 225L310 226L309 225z"/>
<path style="fill:#039ce9; stroke:none;" d="M239 226L240 227L239 226z"/>
<path style="fill:#0185fb; stroke:none;" d="M240 226L241 227L240 226z"/>
<path style="fill:#039ce9; stroke:none;" d="M308 226L309 227L308 226M238 227L239 228L238 227z"/>
<path style="fill:#01ffff; stroke:none;" d="M5 228L6 229L5 228z"/>
<path style="fill:#039ce9; stroke:none;" d="M306 228L305 230L307 230L306 228z"/>
<path style="fill:#01ffff; stroke:none;" d="M4 229L3 231L4 229z"/>
<path style="fill:#039ce9; stroke:none;" d="M235 229L236 230L235 229z"/>
<path style="fill:#01ffff; stroke:none;" d="M479 229L480 230L479 229z"/>
<path style="fill:#039ce9; stroke:none;" d="M4 230L5 231L4 230z"/>
<path style="fill:#0185fb; stroke:none;" d="M232 231L233 232L232 231z"/>
<path style="fill:#039ce9; stroke:none;" d="M230 232L231 233L230 232M478.333 232.667L478.667 233.333L478.333 232.667M227 234L228 235L227 234z"/>
<path style="fill:#01ffff; stroke:none;" d="M299 234L300 235L299 234z"/>
<path style="fill:#039ce9; stroke:none;" d="M477 234L478 235L477 234M0 236L1 237L0 236M223 236L224 237L223 236z"/>
<path style="fill:#0185fb; stroke:none;" d="M224 236L225 237L224 236z"/>
<path style="fill:#039ce9; stroke:none;" d="M220 238L221 239L220 238M293 240L294 241L293 240M215 241L216 242L215 241M292 241L293 242L292 241M476.333 241.667L476.667 242.333L476.333 241.667M0.333333 242.667L0.666667 243.333L0.333333 242.667M213.667 242.333L214.333 242.667L213.667 242.333M291 242L292 243L291 242M289 243L290 244L289 243z"/>
<path style="fill:#01ffff; stroke:none;" d="M476 243L477 244L476 243M0 244L1 245L0 244z"/>
<path style="fill:#039ce9; stroke:none;" d="M211 244L212 245L211 244M209 245L210 246L209 245M475 245L476 246L475 245M286 246L287 247L286 246z"/>
<path style="fill:#01ffff; stroke:none;" d="M2 247L3 248L2 247z"/>
<path style="fill:#039ce9; stroke:none;" d="M285 247L286 248L285 247z"/>
<path style="fill:#01ffff; stroke:none;" d="M4 249L5 250L4 249z"/>
<path style="fill:#039ce9; stroke:none;" d="M203 249L204 250L203 249M283 249L284 250L283 249M474.333 249.667L474.667 250.333L474.333 249.667M6 250L7 251L6 250M200 251L201 252L200 251z"/>
<path style="fill:#01ffff; stroke:none;" d="M280 251L281 252L280 251z"/>
<path style="fill:#0185fb; stroke:none;" d="M279 252L280 253L279 252z"/>
<path style="fill:#039ce9; stroke:none;" d="M194 254L195 255L194 254z"/>
<path style="fill:#0185fb; stroke:none;" d="M15 255L16 256L15 255z"/>
<path style="fill:#039ce9; stroke:none;" d="M17 255L18 256L17 255M18 256L19 257L18 256M275 256L276 257L275 256z"/>
<path style="fill:#0185fb; stroke:none;" d="M473 257L474 258L473 257z"/>
<path style="fill:#01ffff; stroke:none;" d="M189 258L190 259L189 258z"/>
<path style="fill:#039ce9; stroke:none;" d="M32 260L33 261L32 260M184.667 260.333L185.333 260.667L184.667 260.333z"/>
<path style="fill:#01ffff; stroke:none;" d="M270 260L271 261L270 260z"/>
<path style="fill:#0185fb; stroke:none;" d="M34 261L35 262L34 261z"/>
<path style="fill:#039ce9; stroke:none;" d="M36 261L37 262L36 261z"/>
<path style="fill:#0185fb; stroke:none;" d="M269 261L270 262L269 261z"/>
<path style="fill:#039ce9; stroke:none;" d="M268.667 262.333L269.333 262.667L268.667 262.333M41 263L42 264L41 263z"/>
<path style="fill:#01ffff; stroke:none;" d="M181 263L182 264L181 263z"/>
<path style="fill:#039ce9; stroke:none;" d="M267 263L268 264L267 263M45 264L46 265L45 264M266 264L267 265L266 264M471 264L472 265L471 264M176.667 265.333L177.333 265.667L176.667 265.333z"/>
<path style="fill:#0185fb; stroke:none;" d="M50 266L51 267L50 266z"/>
<path style="fill:#039ce9; stroke:none;" d="M175 266L176 267L175 266M471 266L472 267L471 266M54 267L55 268L54 267z"/>
<path style="fill:#01ffff; stroke:none;" d="M173 268L174 269L173 268z"/>
<path style="fill:#039ce9; stroke:none;" d="M61 269L62 270L61 269M171 269L172 270L171 269z"/>
<path style="fill:#01ffff; stroke:none;" d="M260 269L261 270L260 269z"/>
<path style="fill:#039ce9; stroke:none;" d="M63 270L64 271L63 270M65.6667 270.333L66.3333 270.667L65.6667 270.333M259 270L260 271L259 270M470.333 270.667L470.667 271.333L470.333 270.667M167 271L168 272L167 271M70 272L71 273L70 272M257 272L258 273L257 272M74 273L75 274L74 273z"/>
<path style="fill:#01ffff; stroke:none;" d="M165 273L166 274L165 273z"/>
<path style="fill:#039ce9; stroke:none;" d="M256 273L257 274L256 273M469 273L470 274L469 273M163 274L164 275L163 274z"/>
<path style="fill:#0185fb; stroke:none;" d="M79 275L80 276L79 275z"/>
<path style="fill:#039ce9; stroke:none;" d="M83 276L84 277L83 276M159 276L160 277L159 276M158 277L159 278L158 277M89.6667 278.333L90.3333 278.667L89.6667 278.333z"/>
<path style="fill:#01ffff; stroke:none;" d="M157 278L158 279L157 278M250 278L251 279L250 278z"/>
<path style="fill:#0185fb; stroke:none;" d="M92 279L93 280L92 279z"/>
<path style="fill:#039ce9; stroke:none;" d="M155 279L156 280L155 279M468 280L469 281L468 280M99 281L100 282L99 281M151 281L152 282L151 281M149.667 282.333L150.333 282.667L149.667 282.333M106 283L107 284L106 283z"/>
<path style="fill:#0185fb; stroke:none;" d="M149 283L150 284L149 283z"/>
<path style="fill:#039ce9; stroke:none;" d="M108 284L109 285L108 284M110.667 284.333L111.333 284.667L110.667 284.333M244 284L245 285L244 284M467 284L468 285L467 284M145 285L146 286L145 285z"/>
<path style="fill:#0185fb; stroke:none;" d="M467 285L468 286L467 285z"/>
<path style="fill:#039ce9; stroke:none;" d="M115 286L116 287L115 286M143 286L144 287L143 286M119 287L120 288L119 287M141 287L142 288L141 287M240 287L241 288L240 287z"/>
<path style="fill:#0185fb; stroke:none;" d="M141 288L142 289L141 288M124 289L125 290L124 289z"/>
<path style="fill:#039ce9; stroke:none;" d="M128 290L129 291L128 290M136 291L137 292L136 291M134 292L135 293L134 292M234 293L235 294L234 293M465 293L466 294L465 293M233 294L234 295L233 294z"/>
<path style="fill:#01ffff; stroke:none;" d="M231 295L232 296L231 295z"/>
<path style="fill:#039ce9; stroke:none;" d="M230 296L231 297L230 296M464 296L465 297L464 296M226 300L227 301L226 300M225 301L226 302L225 301M463 303L464 304L463 303z"/>
<path style="fill:#01ffff; stroke:none;" d="M221 304L222 305L221 304z"/>
<path style="fill:#0185fb; stroke:none;" d="M220 305L221 306L220 305z"/>
<path style="fill:#039ce9; stroke:none;" d="M219.667 306.333L220.333 306.667L219.667 306.333M218 307L219 308L218 307M462.333 307.667L462.667 308.333L462.333 307.667M217 308L218 309L217 308M215 310L216 311L215 310M461 311L462 312L461 311z"/>
<path style="fill:#01ffff; stroke:none;" d="M211 313L212 314L211 313z"/>
<path style="fill:#039ce9; stroke:none;" d="M210 314L211 315L210 314M460 314L461 315L460 314M208 316L209 317L208 316M207 317L208 318L207 317z"/>
<path style="fill:#01ffff; stroke:none;" d="M460 318L461 319L460 318M201 322L202 323L201 322z"/>
<path style="fill:#039ce9; stroke:none;" d="M200 324L201 325L200 324M457 331L458 332L457 331z"/>
<path style="fill:#0185fb; stroke:none;" d="M457 332L458 333L457 332z"/>
<path style="fill:#039ce9; stroke:none;" d="M456 334L456 337L457 337L456 334M199 336L200 337L199 336M455 337L456 338L455 337M199.333 340.667L199.667 341.333L199.333 340.667M455 341L456 342L455 341M454 345L455 346L454 345z"/>
<path style="fill:#0185fb; stroke:none;" d="M454 346L455 347L454 346z"/>
<path style="fill:#039ce9; stroke:none;" d="M453 349L454 350L453 349z"/>
<path style="fill:#0185fb; stroke:none;" d="M198 350L199 351L198 350z"/>
<path style="fill:#039ce9; stroke:none;" d="M198 351L199 352L198 351M452 352L453 353L452 352M451.333 357.667L451.667 358.333L451.333 357.667M198 360L198 363L199 363L198 360z"/>
<path style="fill:#0185fb; stroke:none;" d="M451 360L452 361L451 360M197 364L198 365L197 364z"/>
<path style="fill:#039ce9; stroke:none;" d="M197.333 368.667L197.667 369.333L197.333 368.667M449 369L450 370L449 369M197 372L198 373L197 372M448.333 372.667L448.667 373.333L448.333 372.667M447 375L448 376L447 375z"/>
<path style="fill:#01ffff; stroke:none;" d="M196 378L197 379L196 378z"/>
<path style="fill:#0185fb; stroke:none;" d="M272 378L273 379L272 378z"/>
<path style="fill:#039ce9; stroke:none;" d="M270 379L271 380L270 379M275 379L276 380L275 379M269 380L270 381L269 380M268 381L269 382L268 381M267 382L268 383L267 382M279 382L280 383L279 382M266 383L267 384L266 383z"/>
<path style="fill:#0185fb; stroke:none;" d="M280 383L281 384L280 383z"/>
<path style="fill:#039ce9; stroke:none;" d="M282 384L283 385L282 384M196 385L197 386L196 385M284 385L285 386L284 385z"/>
<path style="fill:#01ffff; stroke:none;" d="M284 386L285 387L284 386z"/>
<path style="fill:#039ce9; stroke:none;" d="M262 387L263 388L262 387M445.333 387.667L445.667 388.333L445.333 387.667M287 388L288 389L287 388M444 390L445 391L444 390M258 391L259 392L258 391z"/>
<path style="fill:#01ffff; stroke:none;" d="M195 392L196 393L195 392z"/>
<path style="fill:#039ce9; stroke:none;" d="M295 393L296 394L295 393z"/>
<path style="fill:#01ffff; stroke:none;" d="M444 393L445 394L444 393z"/>
<path style="fill:#039ce9; stroke:none;" d="M195 394L195 397L196 397L195 394z"/>
<path style="fill:#0185fb; stroke:none;" d="M295 394L296 395L295 394z"/>
<path style="fill:#039ce9; stroke:none;" d="M254 395L255 396L254 395M297 395L298 396L297 395M252 396L253 397L252 396M298 396L299 397L298 396M443.333 396.667L443.667 397.333L443.333 396.667M251 397L252 398L251 397z"/>
<path style="fill:#01ffff; stroke:none;" d="M299 397L300 398L299 397z"/>
<path style="fill:#0185fb; stroke:none;" d="M251 398L252 399L251 398z"/>
<path style="fill:#039ce9; stroke:none;" d="M442 398L443 399L442 398z"/>
<path style="fill:#0185fb; stroke:none;" d="M250 399L251 400L250 399z"/>
<path style="fill:#039ce9; stroke:none;" d="M302 399L303 400L302 399z"/>
<path style="fill:#01ffff; stroke:none;" d="M249 400L250 401L249 400z"/>
<path style="fill:#039ce9; stroke:none;" d="M247 401L248 402L247 401M305 401L306 402L305 401M244 404L245 405L244 404M309 404L310 405L309 404M243 405L244 406L243 405M310 405L311 406L310 405M194 407L195 408L194 407M241 407L242 408L241 407z"/>
<path style="fill:#01ffff; stroke:none;" d="M441 407L442 408L441 407M314 408L315 409L314 408z"/>
<path style="fill:#039ce9; stroke:none;" d="M238 410L239 411L238 410M440 410L441 411L440 410M319 411L320 412L319 411M439.333 413.667L439.667 414.333L439.333 413.667M194 414L194 418L195 418L194 414M233 415L234 416L233 415M324 415L325 416L324 415M232 416L233 417L232 416z"/>
<path style="fill:#01ffff; stroke:none;" d="M325 416L326 417L325 416z"/>
<path style="fill:#0185fb; stroke:none;" d="M228 420L229 421L228 420z"/>
<path style="fill:#039ce9; stroke:none;" d="M331 420L332 421L331 420M193 421L193 425L194 425L193 421z"/>
<path style="fill:#0185fb; stroke:none;" d="M227 421L228 422L227 421M438 421L439 422L438 421z"/>
<path style="fill:#039ce9; stroke:none;" d="M224 423L225 424L224 423M335 423L336 424L335 423z"/>
<path style="fill:#0185fb; stroke:none;" d="M336 424L337 425L336 424z"/>
<path style="fill:#01ffff; stroke:none;" d="M340 427L341 428L340 427z"/>
<path style="fill:#039ce9; stroke:none;" d="M436 428L437 429L436 428M343.667 429.333L344.333 429.667L343.667 429.333M436 430L437 431L436 430M213 434L214 435L213 434M435.333 434.667L435.667 435.333L435.333 434.667M192 435L193 436L192 435M212 435L213 436L212 435M352 435L353 436L352 435M192 437L193 438L192 437z"/>
<path style="fill:#0185fb; stroke:none;" d="M210 437L211 438L210 437z"/>
<path style="fill:#039ce9; stroke:none;" d="M354 437L355 438L354 437z"/>
<path style="fill:#01ffff; stroke:none;" d="M355 438L356 439L355 438z"/>
<path style="fill:#039ce9; stroke:none;" d="M192.333 440.667L192.667 441.333L192.333 440.667M358 440L359 441L358 440M200 442L201 443L200 442M361 442L362 443L361 442M364 444L365 445L364 444M365 445L366 446L365 445z"/>
<path style="fill:#0185fb; stroke:none;" d="M366 446L367 447L366 446z"/>
<path style="fill:#039ce9; stroke:none;" d="M368 447L369 448L368 447M369 448L370 449L369 448z"/>
<path style="fill:#0185fb; stroke:none;" d="M432 448L433 449L432 448z"/>
<path style="fill:#01ffff; stroke:none;" d="M370 449L371 450L370 449z"/>
<path style="fill:#039ce9; stroke:none;" d="M373.333 450.667L373.667 451.333L373.333 450.667z"/>
<path style="fill:#01ffff; stroke:none;" d="M431 451L432 452L431 451z"/>
<path style="fill:#039ce9; stroke:none;" d="M376 453L377 454L376 453M429 455L430 456L429 455M381 457L382 458L381 457M384 459L385 460L384 459M426 459L427 460L426 459M387 461L388 462L387 461z"/>
<path style="fill:#01ffff; stroke:none;" d="M424 463L425 464L424 463z"/>
<path style="fill:#039ce9; stroke:none;" d="M391 464L392 465L391 464M423 464L424 465L423 464z"/>
<path style="fill:#0185fb; stroke:none;" d="M395 466L396 467L395 466z"/>
<path style="fill:#039ce9; stroke:none;" d="M397 466L398 467L397 466M398 467L398 468L401 468L398 467M401 468L402 469L401 468M404 468L405 469L404 468M414.667 468.333L415.333 468.667L414.667 468.333M405.667 469.333L406.333 469.667L405.667 469.333M409 469L410 470L409 469M412 469L413 470L412 469z"/>
</svg>
