<svg xmlns="http://www.w3.org/2000/svg" width="30.579" height="24.836" viewBox="0 0 30.579 24.836">
    <path data-name="Icon awesome-twitter" d="M27.436 9.57c.019.272.019.543.019.815 0 8.285-6.306 17.832-17.832 17.832A17.711 17.711 0 0 1 0 25.4a12.965 12.965 0 0 0 1.513.078A12.551 12.551 0 0 0 9.294 22.8a6.278 6.278 0 0 1-5.86-4.346 7.9 7.9 0 0 0 1.184.1 6.629 6.629 0 0 0 1.649-.213 6.268 6.268 0 0 1-5.025-6.151v-.078a6.312 6.312 0 0 0 2.833.8 6.277 6.277 0 0 1-1.94-8.382 17.814 17.814 0 0 0 12.923 6.558 7.075 7.075 0 0 1-.158-1.44A6.273 6.273 0 0 1 25.748 5.36a12.339 12.339 0 0 0 3.978-1.513A6.25 6.25 0 0 1 26.97 7.3a12.564 12.564 0 0 0 3.609-.97 13.472 13.472 0 0 1-3.143 3.24z" transform="translate(0 -3.381)" style="fill:#fff"/>
</svg>
